<svg xmlns="http://www.w3.org/2000/svg" version="1.1" xmlns:xlink="http://www.w3.org/1999/xlink" width="200" height="200"><svg xmlns="http://www.w3.org/2000/svg" version="1.1" xmlns:xlink="http://www.w3.org/1999/xlink" viewBox="0 0 200 200"><rect width="200" height="200" fill="url('#gradient')"></rect><defs><linearGradient id="SvgjsLinearGradient1001" gradientTransform="rotate(45 0.5 0.5)"><stop offset="0%" stop-color="#20242a"></stop><stop offset="100%" stop-color="#20242a"></stop></linearGradient></defs><g><g fill="#99a0ac" transform="matrix(7.773935048502741,0,0,7.773935048502741,7.25824449104833,154.4970049904349)" stroke="#99a0ac" stroke-width="0"><path d="M6.74-4.46L6.74-14.22L10.16-14.22L10.16-4.46Q10.16-3.11 9.53-2.04Q8.90-0.98 7.77-0.39Q6.64 0.20 5.25 0.20L5.25 0.20Q2.93 0.20 1.64-0.98Q0.35-2.15 0.35-4.30L0.35-4.30L3.79-4.30Q3.79-3.32 4.13-2.88Q4.46-2.44 5.25-2.44L5.25-2.44Q5.97-2.44 6.35-2.97Q6.74-3.51 6.74-4.46L6.74-4.46ZM17.93-4.82L15.74-4.82L15.74 0L12.31 0L12.31-14.22L17.99-14.22Q19.62-14.22 20.87-13.62Q22.13-13.02 22.82-11.91Q23.51-10.80 23.51-9.39L23.51-9.39Q23.51-7.31 22.02-6.07Q20.53-4.82 17.93-4.82L17.93-4.82ZM15.74-11.57L15.74-7.47L17.99-7.47Q18.98-7.47 19.51-7.97Q20.03-8.47 20.03-9.38L20.03-9.38Q20.03-10.37 19.49-10.97Q18.96-11.56 18.03-11.57L18.03-11.57L15.74-11.57Z"></path></g></g></svg><style>@media (prefers-color-scheme: light) { :root { filter: none; } }
@media (prefers-color-scheme: dark) { :root { filter: none; } }
</style></svg>